<svg xmlns="http://www.w3.org/2000/svg" xmlns:xlink="http://www.w3.org/1999/xlink" width="1080" zoomAndPan="magnify" viewBox="0 0 810 809.999993" height="1080" preserveAspectRatio="xMidYMid meet" version="1.2"><defs><clipPath id="9ac9a9b4ed"><path d="M 226.269531 242.191406 L 437 242.191406 L 437 431 L 226.269531 431 Z M 226.269531 242.191406 "/></clipPath><clipPath id="f1f171be7f"><path d="M 373 242.191406 L 583.839844 242.191406 L 583.839844 431 L 373 431 Z M 373 242.191406 "/></clipPath><clipPath id="f7c8aa861b"><path d="M 226.269531 379 L 437 379 L 437 567.691406 L 226.269531 567.691406 Z M 226.269531 379 "/></clipPath><clipPath id="e1cb4a9cc9"><path d="M 373 379 L 583.839844 379 L 583.839844 567.691406 L 373 567.691406 Z M 373 379 "/></clipPath></defs><g id="f7e2db6e24"><rect x="0" width="810" y="0" height="809.999993" style="fill:#ffffff;fill-opacity:1;stroke:none;"/><rect x="0" width="810" y="0" height="809.999993" style="fill:#ffffff;fill-opacity:1;stroke:none;"/><g clip-rule="nonzero" clip-path="url(#9ac9a9b4ed)"><path style=" stroke:none;fill-rule:nonzero;fill:#ff1091;fill-opacity:1;" d="M 331.125 242.195312 C 316.8125 242.195312 305.203125 253.796875 305.203125 268.113281 C 305.203125 282.425781 316.808594 294.03125 331.125 294.03125 C 332.777344 294.03125 334.386719 293.871094 335.953125 293.578125 L 350.984375 319.613281 C 348.804688 322.136719 347.109375 325.085938 346.03125 328.320312 L 316.214844 328.320312 C 312.78125 318.027344 303.070312 310.609375 291.625 310.609375 C 277.3125 310.609375 265.707031 322.214844 265.707031 336.527344 C 265.707031 343.097656 268.15625 349.097656 272.1875 353.667969 L 257.257812 379.53125 C 255.597656 379.195312 253.882812 379.019531 252.125 379.019531 C 237.8125 379.023438 226.207031 390.625 226.207031 404.9375 C 226.207031 419.25 237.8125 430.855469 252.125 430.855469 C 263.574219 430.855469 273.285156 423.433594 276.714844 413.144531 L 306.53125 413.144531 C 309.96875 423.4375 319.679688 430.855469 331.125 430.855469 C 342.566406 430.855469 352.28125 423.433594 355.714844 413.144531 L 385.527344 413.144531 C 388.964844 423.4375 398.675781 430.855469 410.117188 430.855469 C 424.433594 430.855469 436.039062 419.25 436.039062 404.9375 C 436.039062 390.625 424.433594 379.023438 410.117188 379.023438 C 398.675781 379.023438 388.960938 386.4375 385.527344 396.730469 L 355.714844 396.730469 C 352.28125 386.4375 342.566406 379.023438 331.125 379.023438 C 319.679688 379.023438 309.96875 386.4375 306.535156 396.730469 L 276.714844 396.730469 C 275.59375 393.363281 273.796875 390.304688 271.488281 387.710938 L 286.382812 361.914062 C 288.078125 362.261719 289.832031 362.445312 291.625 362.445312 C 303.070312 362.445312 312.785156 355.027344 316.214844 344.734375 L 346.03125 344.734375 C 349.460938 355.027344 359.175781 362.445312 370.621094 362.445312 C 384.933594 362.445312 396.542969 350.839844 396.542969 336.527344 C 396.542969 322.214844 384.9375 310.609375 370.621094 310.609375 C 368.722656 310.609375 366.867188 310.816406 365.082031 311.203125 L 350.28125 285.570312 C 354.480469 280.964844 357.042969 274.839844 357.042969 268.113281 C 357.042969 253.796875 345.4375 242.195312 331.125 242.195312 "/></g><g clip-rule="nonzero" clip-path="url(#f1f171be7f)"><path style=" stroke:none;fill-rule:nonzero;fill:#ff1091;fill-opacity:1;" d="M 478.746094 430.855469 C 493.0625 430.855469 504.667969 419.253906 504.667969 404.9375 C 504.667969 390.625 493.066406 379.023438 478.746094 379.023438 C 477.09375 379.023438 475.484375 379.175781 473.917969 379.472656 L 458.886719 353.441406 C 461.0625 350.917969 462.761719 347.96875 463.84375 344.734375 L 493.65625 344.734375 C 497.089844 355.027344 506.800781 362.445312 518.246094 362.445312 C 532.5625 362.445312 544.164062 350.839844 544.164062 336.527344 C 544.164062 329.953125 541.71875 323.953125 537.6875 319.382812 L 552.617188 293.523438 C 554.277344 293.855469 555.988281 294.03125 557.75 294.03125 C 572.0625 294.03125 583.664062 282.429688 583.664062 268.109375 C 583.664062 253.796875 572.0625 242.195312 557.746094 242.195312 C 546.300781 242.195312 536.589844 249.613281 533.15625 259.902344 L 503.34375 259.902344 C 499.90625 249.613281 490.195312 242.195312 478.753906 242.195312 C 467.304688 242.195312 457.59375 249.613281 454.160156 259.902344 L 424.347656 259.902344 C 420.910156 249.613281 411.199219 242.195312 399.753906 242.195312 C 385.441406 242.195312 373.835938 253.796875 373.835938 268.109375 C 373.835938 282.425781 385.441406 294.03125 399.753906 294.03125 C 411.203125 294.03125 420.914062 286.613281 424.347656 276.320312 L 454.160156 276.320312 C 457.59375 286.613281 467.304688 294.03125 478.75 294.03125 C 490.195312 294.03125 499.90625 286.613281 503.339844 276.320312 L 533.15625 276.320312 C 534.28125 279.6875 536.078125 282.75 538.386719 285.339844 L 523.492188 311.136719 C 521.800781 310.789062 520.046875 310.605469 518.25 310.605469 C 506.804688 310.605469 497.089844 318.027344 493.660156 328.320312 L 463.84375 328.320312 C 460.410156 318.027344 450.699219 310.605469 439.253906 310.605469 C 424.941406 310.605469 413.332031 322.210938 413.332031 336.523438 C 413.332031 350.839844 424.9375 362.441406 439.253906 362.441406 C 441.152344 362.441406 443.007812 362.238281 444.789062 361.847656 L 459.589844 387.480469 C 455.390625 392.085938 452.828125 398.210938 452.828125 404.9375 C 452.828125 419.25 464.433594 430.855469 478.746094 430.855469 "/></g><g clip-rule="nonzero" clip-path="url(#f7c8aa861b)"><path style=" stroke:none;fill-rule:nonzero;fill:#ff1091;fill-opacity:1;" d="M 331.125 567.683594 C 316.8125 567.683594 305.203125 556.082031 305.203125 541.765625 C 305.203125 527.453125 316.808594 515.84375 331.125 515.84375 C 332.777344 515.84375 334.386719 516.003906 335.953125 516.300781 L 350.984375 490.265625 C 348.804688 487.742188 347.109375 484.792969 346.03125 481.5625 L 316.214844 481.5625 C 312.78125 491.851562 303.070312 499.269531 291.625 499.269531 C 277.3125 499.269531 265.707031 487.667969 265.707031 473.351562 C 265.707031 466.78125 268.15625 460.777344 272.1875 456.210938 L 257.257812 430.347656 C 255.597656 430.683594 253.882812 430.855469 252.125 430.855469 C 237.8125 430.855469 226.207031 419.253906 226.207031 404.9375 C 226.207031 390.625 237.8125 379.023438 252.125 379.023438 C 263.574219 379.023438 273.285156 386.4375 276.714844 396.734375 L 306.53125 396.734375 C 309.96875 386.441406 319.679688 379.023438 331.125 379.023438 C 342.566406 379.023438 352.28125 386.4375 355.714844 396.734375 L 385.527344 396.734375 C 388.964844 386.441406 398.675781 379.023438 410.117188 379.023438 C 424.433594 379.023438 436.039062 390.625 436.039062 404.9375 C 436.039062 419.253906 424.433594 430.855469 410.117188 430.855469 C 398.675781 430.855469 388.960938 423.4375 385.527344 413.144531 L 355.714844 413.144531 C 352.28125 423.4375 342.566406 430.855469 331.125 430.855469 C 319.679688 430.855469 309.96875 423.4375 306.535156 413.144531 L 276.714844 413.144531 C 275.59375 416.515625 273.796875 419.574219 271.488281 422.167969 L 286.382812 447.964844 C 288.078125 447.617188 289.832031 447.433594 291.625 447.433594 C 303.070312 447.433594 312.785156 454.851562 316.214844 465.144531 L 346.03125 465.144531 C 349.460938 454.851562 359.175781 447.433594 370.621094 447.433594 C 384.933594 447.433594 396.542969 459.035156 396.542969 473.351562 C 396.542969 487.664062 384.9375 499.269531 370.621094 499.269531 C 368.722656 499.269531 366.867188 499.066406 365.082031 498.675781 L 350.28125 524.308594 C 354.480469 528.914062 357.042969 535.042969 357.042969 541.765625 C 357.042969 556.082031 345.4375 567.683594 331.125 567.683594 "/></g><g clip-rule="nonzero" clip-path="url(#e1cb4a9cc9)"><path style=" stroke:none;fill-rule:nonzero;fill:#ff1091;fill-opacity:1;" d="M 478.746094 379.023438 C 493.0625 379.023438 504.667969 390.625 504.667969 404.9375 C 504.667969 419.25 493.066406 430.855469 478.746094 430.855469 C 477.09375 430.855469 475.484375 430.703125 473.917969 430.40625 L 458.886719 456.4375 C 461.0625 458.960938 462.761719 461.910156 463.84375 465.144531 L 493.65625 465.144531 C 497.089844 454.851562 506.800781 447.433594 518.246094 447.433594 C 532.5625 447.433594 544.164062 459.035156 544.164062 473.351562 C 544.164062 479.921875 541.71875 485.925781 537.6875 490.496094 L 552.617188 516.355469 C 554.277344 516.019531 555.988281 515.84375 557.75 515.84375 C 572.0625 515.84375 583.667969 527.453125 583.667969 541.765625 C 583.667969 556.082031 572.066406 567.683594 557.75 567.683594 C 546.300781 567.683594 536.589844 560.261719 533.160156 549.972656 L 503.34375 549.972656 C 499.90625 560.265625 490.195312 567.683594 478.753906 567.683594 C 467.308594 567.683594 457.59375 560.261719 454.164062 549.972656 L 424.347656 549.972656 C 420.910156 560.265625 411.199219 567.683594 399.753906 567.683594 C 385.441406 567.683594 373.835938 556.082031 373.835938 541.765625 C 373.835938 527.453125 385.441406 515.84375 399.753906 515.84375 C 411.203125 515.84375 420.914062 523.265625 424.347656 533.554688 L 454.160156 533.554688 C 457.59375 523.265625 467.304688 515.84375 478.75 515.84375 C 490.195312 515.84375 499.90625 523.265625 503.339844 533.554688 L 533.15625 533.554688 C 534.28125 530.191406 536.078125 527.128906 538.386719 524.535156 L 523.492188 498.738281 C 521.800781 499.085938 520.046875 499.269531 518.25 499.269531 C 506.804688 499.269531 497.089844 491.847656 493.660156 481.558594 L 463.84375 481.558594 C 460.410156 491.851562 450.699219 499.269531 439.253906 499.269531 C 424.941406 499.269531 413.332031 487.664062 413.332031 473.351562 C 413.332031 459.035156 424.9375 447.433594 439.253906 447.433594 C 441.152344 447.433594 443.007812 447.640625 444.789062 448.027344 L 459.589844 422.390625 C 455.390625 417.789062 452.828125 411.660156 452.828125 404.9375 C 452.828125 390.625 464.433594 379.023438 478.746094 379.023438 "/></g></g></svg>