<svg xmlns="http://www.w3.org/2000/svg" viewBox="0 0 810 810" width="810" height="810">
  <path d="M 240 42 C 208 42 182 68 182 100 C 182 132 208 158 240 158 C 244 158 247 157 251 157 L 284 215 C 279 220 276 227 273 234 L 207 234 C 199 211 178 195 152 195 C 120 195 95 220 95 252 C 95 267 100 280 109 290 L 76 348 C 72 347 68 347 64 347 C 33 347 7 373 7 404 C 7 436 33 462 64 462 C 90 462 111 446 119 423 L 185 423 C 193 446 215 462 240 462 C 266 462 287 446 295 423 L 361 423 C 369 446 390 462 416 462 C 448 462 474 436 474 404 C 474 373 448 347 416 347 C 390 347 369 363 361 386 L 295 386 C 287 363 266 347 240 347 C 215 347 193 363 185 386 L 119 386 C 117 379 113 372 107 366 L 141 309 C 144 309 148 310 152 310 C 178 310 199 293 207 270 L 273 270 C 281 293 303 310 328 310 C 360 310 386 284 386 252 C 386 220 360 195 328 195 C 324 195 320 195 316 196 L 283 139 C 292 129 298 115 298 100 C 298 68 272 42 240 42 Z" fill="none" stroke="white" stroke-width="2"/>
  <path d="M 569 462 C 600 462 626 436 626 404 C 626 373 600 347 569 347 C 565 347 561 347 558 348 L 524 290 C 529 284 533 278 535 270 L 602 270 C 609 293 631 310 656 310 C 688 310 714 284 714 252 C 714 238 709 224 700 214 L 733 156 C 737 157 740 158 744 158 C 776 158 802 132 802 100 C 802 68 776 42 744 42 C 719 42 697 59 690 82 L 623 82 C 616 59 594 42 569 42 C 543 42 522 59 514 82 L 448 82 C 440 59 418 42 393 42 C 361 42 335 68 335 100 C 335 132 361 158 393 158 C 418 158 440 141 448 118 L 514 118 C 521 141 543 158 569 158 C 594 158 616 141 623 118 L 690 118 C 692 126 696 133 701 138 L 668 196 C 664 195 660 195 656 195 C 631 195 609 211 602 234 L 535 234 C 528 211 506 195 481 195 C 449 195 423 220 423 252 C 423 284 449 310 481 310 C 485 310 489 309 493 309 L 526 366 C 517 376 511 389 511 404 C 511 436 537 462 569 462 Z" fill="none" stroke="white" stroke-width="2"/>
  <path d="M 240 766 C 208 766 182 741 182 709 C 182 677 208 651 240 651 C 244 651 247 651 251 652 L 284 594 C 279 589 276 582 273 575 L 207 575 C 199 598 178 614 152 614 C 120 614 95 588 95 557 C 95 542 100 529 109 518 L 76 461 C 72 462 68 462 64 462 C 33 462 7 436 7 404 C 7 373 33 347 64 347 C 90 347 111 363 119 386 L 185 386 C 193 363 215 347 240 347 C 266 347 287 363 295 386 L 361 386 C 369 363 390 347 416 347 C 448 347 474 373 474 404 C 474 436 448 462 416 462 C 390 462 369 446 361 423 L 295 423 C 287 446 266 462 240 462 C 215 462 193 446 185 423 L 119 423 C 117 430 113 437 107 443 L 141 500 C 144 499 148 499 152 499 C 178 499 199 515 207 538 L 273 538 C 281 515 303 499 328 499 C 360 499 386 525 386 557 C 386 588 360 614 328 614 C 324 614 320 613 316 613 L 283 670 C 292 680 298 694 298 709 C 298 741 272 766 240 766 Z" fill="none" stroke="white" stroke-width="2"/>
  <path d="M 569 347 C 600 347 626 373 626 404 C 626 436 600 462 569 462 C 565 462 561 462 558 461 L 524 519 C 529 525 533 531 535 538 L 602 538 C 609 515 631 499 656 499 C 688 499 714 525 714 557 C 714 571 709 585 700 595 L 733 652 C 737 651 740 651 744 651 C 776 651 802 677 802 709 C 802 741 776 766 744 766 C 719 766 697 750 690 727 L 623 727 C 616 750 594 766 569 766 C 543 766 522 750 514 727 L 448 727 C 440 750 418 766 393 766 C 361 766 335 741 335 709 C 335 677 361 651 393 651 C 418 651 440 668 448 690 L 514 690 C 521 668 543 651 569 651 C 594 651 616 668 623 690 L 690 690 C 692 683 696 676 701 670 L 668 613 C 664 614 660 614 656 614 C 631 614 609 598 602 575 L 535 575 C 528 598 506 614 481 614 C 449 614 423 588 423 557 C 423 525 449 499 481 499 C 485 499 489 499 493 500 L 526 443 C 517 433 511 419 511 404 C 511 373 537 347 569 347 Z" fill="none" stroke="white" stroke-width="2"/>
</svg>
